<?xml version="1.0" encoding="utf-8"?>
<!-- Generator: Adobe Illustrator 19.1.0, SVG Export Plug-In . SVG Version: 6.00 Build 0)  -->
<svg version="1.1" id="Layer_1" xmlns="http://www.w3.org/2000/svg" xmlns:xlink="http://www.w3.org/1999/xlink" x="0px" y="0px"
	 viewBox="0 0 177 177" style="enable-background:new 0 0 177 177;" xml:space="preserve">
<style type="text/css">
	.st0{fill:#DC382F;}
	.st1{fill:none;}
	.st2{fill:#FFFFFF;}
	.st3{fill:#231F20;}
	.st4{fill:#FFE405;}
</style>
<g>
	<rect x="0" class="st0" width="177" height="177"/>
	<path class="st0" d="M106.6,48.8c13.7,7.9,22.9,22.6,22.9,39.5c0,25.1-20.4,45.6-45.6,45.6c-5.1-0.1-12.3-1.7-18.4-4L106.6,48.8
		L106.6,48.8z"/>
	<path class="st0" d="M106.6,48.8c13.7,7.9,22.9,22.6,22.9,39.5c0,25.1-20.4,45.6-45.6,45.6c-5.1-0.1-12.3-1.7-18.4-4L106.6,48.8
		L106.6,48.8z"/>
	<path class="st1" d="M106.6,48.8c13.7,7.9,22.9,22.6,22.9,39.5c0,25.1-20.4,45.6-45.6,45.6c-5.1-0.1-12.3-1.7-18.4-4"/>
	<path class="st0" d="M102.5,46.6C97,44.2,90,42.8,83.6,42.8C58.5,42.8,38,63.2,38,88.3c0,16.6,9.4,31.9,22.6,39.9L102.5,46.6
		L102.5,46.6z"/>
	<path class="st0" d="M102.5,46.6C97,44.2,90,42.8,83.6,42.8C58.5,42.8,38,63.2,38,88.3c0,16.6,9.4,31.9,22.6,39.9L102.5,46.6
		L102.5,46.6z"/>
	<path class="st1" d="M102.5,46.6C97,44.2,90,42.8,83.6,42.8C58.5,42.8,38,63.2,38,88.3c0,16.6,9.4,31.9,22.6,39.9"/>
	<path class="st2" d="M84,133.6c24.9,0,45.2-20.2,45.2-45.1S108.9,43.3,84,43.3c-24.9,0-45.2,20.2-45.2,45.1
		C38.7,113.3,59,133.6,84,133.6L84,133.6L84,133.6L84,133.6z"/>
	<path class="st2" d="M84,133.6c24.9,0,45.2-20.2,45.2-45.1S108.9,43.3,84,43.3c-24.9,0-45.2,20.2-45.2,45.1
		C38.7,113.3,59,133.6,84,133.6L84,133.6L84,133.6L84,133.6z"/>
	<polygon class="st3" points="129.2,18.2 129.2,18.2 129.2,18.2 130.5,20.8 130.5,20.8 130.5,20.8 129.2,18.2 129.2,18.2 	"/>
	<polygon class="st3" points="129.2,18.2 129.2,18.2 129.2,18.2 130.5,20.8 130.5,20.8 130.5,20.8 129.2,18.2 129.2,18.2 	"/>
	<path class="st3" d="M92.9,68.8c0.2-0.1,36.2-50.5,36.2-50.5l1.3,2.5c0,0-36.1,50.4-36.2,50.5L92.9,68.8L92.9,68.8L92.9,68.8
		L92.9,68.8z"/>
	<path class="st3" d="M92.9,68.8c0.2-0.1,36.2-50.5,36.2-50.5l1.3,2.5c0,0-36.1,50.4-36.2,50.5L92.9,68.8L92.9,68.8L92.9,68.8
		L92.9,68.8z"/>
	<path class="st3" d="M70.6,80.3c4.9,0.2,9.9,0.4,14.8,0.6l0,0l1.3,2.5l0,0c-4.9-0.2-9.9-0.4-14.8-0.6L70.6,80.3L70.6,80.3
		L70.6,80.3L70.6,80.3z"/>
	<path class="st3" d="M70.6,80.3c4.9,0.2,9.9,0.4,14.8,0.6l0,0l1.3,2.5l0,0c-4.9-0.2-9.9-0.4-14.8-0.6L70.6,80.3L70.6,80.3
		L70.6,80.3L70.6,80.3z"/>
	<polygon class="st3" points="79.3,103.3 109.5,69.1 109.5,69.1 110.8,71.7 110.8,71.7 80.6,105.8 79.3,103.3 79.3,103.3 	"/>
	<polygon class="st3" points="79.3,103.3 109.5,69.1 109.5,69.1 110.8,71.7 110.8,71.7 80.6,105.8 79.3,103.3 79.3,103.3 	"/>
	<polygon class="st3" points="57.5,112.3 72.4,114 72.4,114 73.7,116.5 73.7,116.5 58.8,114.8 57.5,112.3 57.5,112.3 	"/>
	<polygon class="st3" points="57.5,112.3 72.4,114 72.4,114 73.7,116.5 73.7,116.5 58.8,114.8 57.5,112.3 57.5,112.3 	"/>
	<polygon class="st3" points="35.3,159.5 88.4,110.7 97.5,103.3 97.5,103.3 98.8,105.8 98.8,105.8 89.7,113.2 36.7,162 35.3,159.5 
		35.3,159.5 	"/>
	<polygon class="st3" points="35.3,159.5 88.4,110.7 97.5,103.3 97.5,103.3 98.8,105.8 98.8,105.8 89.7,113.2 36.7,162 35.3,159.5 
		35.3,159.5 	"/>
	<path class="st4" d="M92.9,68.8c0.2-0.1,36.2-50.5,36.2-50.5L70.5,80.5c4.9,0.2,9.9,0.4,14.8,0.6c-9.6,10.5-18.8,21-27.9,31.4
		l14.9,1.6l-37.1,45.5l53-48.8l9.1-7.3H79l30.2-34.2C104.2,68.8,98.5,68.8,92.9,68.8L92.9,68.8L92.9,68.8L92.9,68.8z"/>
	<path class="st4" d="M92.9,68.8c0.2-0.1,36.2-50.5,36.2-50.5L70.5,80.5c4.9,0.2,9.9,0.4,14.8,0.6c-9.6,10.5-18.8,21-27.9,31.4
		l14.9,1.6l-37.1,45.5l53-48.8l9.1-7.3H79l30.2-34.2C104.2,68.8,98.5,68.8,92.9,68.8L92.9,68.8L92.9,68.8L92.9,68.8z"/>
	<path class="st1" d="M92.9,68.8c0.2-0.1,36.2-50.5,36.2-50.5L70.5,80.5c4.9,0.2,9.9,0.4,14.8,0.6c-9.6,10.5-18.8,21-27.9,31.4
		l14.9,1.6l-37.1,45.5l53-48.8l9.1-7.3H79l30.2-34.2C104.2,68.8,98.5,68.8,92.9,68.8L92.9,68.8L92.9,68.8L92.9,68.8z"/>
</g>
</svg>
